<?xml version="1.0" standalone="no"?><!DOCTYPE svg PUBLIC "-//W3C//DTD SVG 1.1//EN" "http://www.w3.org/Graphics/SVG/1.1/DTD/svg11.dtd"><svg t="1656729378154" class="icon" viewBox="0 0 1029 1024" version="1.1" xmlns="http://www.w3.org/2000/svg" p-id="16102" xmlns:xlink="http://www.w3.org/1999/xlink" width="200.9765625" height="200"><defs><style type="text/css">@font-face { font-family: feedback-iconfont; src: url("//at.alicdn.com/t/font_1031158_u69w8yhxdu.woff2?t=1630033759944") format("woff2"), url("//at.alicdn.com/t/font_1031158_u69w8yhxdu.woff?t=1630033759944") format("woff"), url("//at.alicdn.com/t/font_1031158_u69w8yhxdu.ttf?t=1630033759944") format("truetype"); }
</style></defs><path d="M1027.461051 511.98976c0 282.766825-229.222936 511.98976-511.98976 511.98976s-511.98976-229.222936-511.989761-511.98976 229.222936-511.98976 511.989761-511.98976 511.98976 229.222936 511.98976 511.98976" fill="#8AC072" p-id="16103"></path><path d="M704.871663 524.774145a55.858083 55.858083 0 0 1 3.732405 42.894502 55.827363 55.827363 0 0 1-27.688406 32.97726l-133.460371 69.415572-51.915762-99.822644 133.460371-69.415571c27.51945-14.310114 61.556529-3.568569 75.871763 23.950881m-118.761145-192.620788a55.899042 55.899042 0 0 1 32.97726 27.693526c14.310114 27.51433 3.553209 61.556529-23.940641 75.871763h-0.01024L461.676526 505.134217 409.750525 405.311574 543.221136 335.890882a55.914402 55.914402 0 0 1 42.889382-3.737525m22.097478-69.973641c-33.028459-10.424112-68.135597-7.367533-98.854983 8.611668l-17.653407 9.185096-43.170977-83.003779-63.435531 32.9875 43.176097 83.00378-54.148037 28.164556-43.176097-83.008899-15.190736 7.905122-61.556529 32.014719 41.614528 80.01376-75.01162 39.01362 36.9759 71.094898L332.793344 449.148137l134.586748 258.759625-75.016739 39.01362 36.98102 71.094898 75.01162-39.01362 35.122497 67.531449 15.195857-7.900002 61.551408-32.019839-36.684066-70.52659 54.281155-28.231115 36.684066 70.531709 63.174416-32.859503-36.684066-70.531709 17.781404-9.246535a130.378192 130.378192 0 0 0 30.51459-21.938761 129.00606 129.00606 0 0 0 33.289574-54.050759c10.429231-33.02334 7.367533-68.125357-8.611667-98.849863-16.808624-32.316794-45.444211-54.52179-77.853163-64.234236 10.674987-32.127357 8.893262-68.355753-7.925602-100.693026-15.9792-30.724506-42.971301-53.380052-75.9844-63.804164" fill="#FFFFFF" p-id="16104"></path></svg>