<?xml version="1.0" standalone="no"?><!DOCTYPE svg PUBLIC "-//W3C//DTD SVG 1.1//EN" "http://www.w3.org/Graphics/SVG/1.1/DTD/svg11.dtd"><svg t="1658211082073" class="icon" viewBox="0 0 1024 1024" version="1.1" xmlns="http://www.w3.org/2000/svg" p-id="776" xmlns:xlink="http://www.w3.org/1999/xlink" width="200" height="200"><defs><style type="text/css">@font-face { font-family: feedback-iconfont; src: url("//at.alicdn.com/t/font_1031158_u69w8yhxdu.woff2?t=1630033759944") format("woff2"), url("//at.alicdn.com/t/font_1031158_u69w8yhxdu.woff?t=1630033759944") format("woff"), url("//at.alicdn.com/t/font_1031158_u69w8yhxdu.ttf?t=1630033759944") format("truetype"); }
</style></defs><path d="M512 85.333333C276.352 85.333333 85.333333 276.352 85.333333 512s191.018667 426.666667 426.666667 426.666667 426.666667-191.018667 426.666667-426.666667S747.648 85.333333 512 85.333333z m128.426667 606.72l-129.749334-129.749333-129.066666 129.024a35.968 35.968 0 1 1-50.901334-50.901333l129.024-129.066667-130.432-130.432A35.968 35.968 0 1 1 380.16 329.984l130.474667 130.474667 129.706666-129.749334a35.968 35.968 0 1 1 50.944 50.901334l-129.749333 129.749333 129.749333 129.749333a35.968 35.968 0 1 1-50.901333 50.944z" fill="#FF3838" p-id="777"></path></svg>