<?xml version="1.0" standalone="no"?><!DOCTYPE svg PUBLIC "-//W3C//DTD SVG 1.1//EN" "http://www.w3.org/Graphics/SVG/1.1/DTD/svg11.dtd"><svg t="1656742985947" class="icon" viewBox="0 0 1024 1024" version="1.1" xmlns="http://www.w3.org/2000/svg" p-id="8926" xmlns:xlink="http://www.w3.org/1999/xlink" width="200" height="200"><defs><style type="text/css">@font-face { font-family: feedback-iconfont; src: url("//at.alicdn.com/t/font_1031158_u69w8yhxdu.woff2?t=1630033759944") format("woff2"), url("//at.alicdn.com/t/font_1031158_u69w8yhxdu.woff?t=1630033759944") format("woff"), url("//at.alicdn.com/t/font_1031158_u69w8yhxdu.ttf?t=1630033759944") format("truetype"); }
</style></defs><path d="M814.774044 425.061262c0-42.207004-14.067484-78.791111-39.395555-112.55808 8.443449-36.578418 5.627449-75.979662-8.438898-109.747769-2.818276-8.441173-8.443449-14.067484-16.88576-16.884622-11.256036-2.812587-47.839004-8.440036-123.817529 39.396693-61.907627-14.068622-126.62784-14.068622-185.72288 0-75.975111-47.836729-112.559218-42.20928-123.815253-39.396693-8.440036 2.817138-14.068622 8.443449-16.883485 16.884622-16.884622 36.582969-19.696071 73.169351-8.440035 109.747769-25.328071 33.766969-39.395556 73.162524-39.395556 112.55808 0 151.958187 84.420836 199.797191 163.210809 216.6784-5.628587 19.698347-8.443449 36.579556-8.443449 53.464178v2.816c-59.092764 11.258311-78.791111-11.254898-101.30432-42.211556-14.067484-19.696071-30.952107-42.208142-61.907626-47.835591-14.068622-2.818276-30.95552 5.627449-33.768107 19.696071-2.814862 14.070898 5.628587 30.956658 19.699484 33.769245 8.440036 2.817138 19.696071 14.070898 30.953245 28.138382 25.326933 33.773796 61.907627 78.795662 146.326187 67.538489v47.835591c0 16.884622 11.256036 28.138382 28.138382 28.138382s28.13952-11.256036 28.13952-28.138382V695.204978c0-19.696071 5.628587-36.578418 19.698346-50.651591 8.440036-8.441173 11.257173-19.698347 5.628587-28.13952-2.816-11.257173-11.257173-16.883484-22.512071-19.696071-81.607111-11.258311-157.582222-36.582969-157.582222-168.841672 0-33.768107 11.254898-61.907627 33.766969-87.23456 8.441173-8.440036 8.441173-19.698347 5.628586-28.13952-8.443449-25.324658-8.443449-47.837867-2.816-70.352213 14.070898 2.816 39.395556 11.257173 73.162525 36.582969 8.443449 5.628587 16.883484 5.628587 25.328071 2.816 59.093902-16.884622 123.814116-16.884622 182.908018 0 8.443449 2.814862 16.883484 0 22.510933-2.816 36.581831-25.328071 61.91104-33.769244 73.167076-36.582969 5.628587 22.514347 5.628587 45.027556-2.816 67.538489-2.811449 11.256036-2.811449 22.513209 5.628586 28.138382 22.510933 22.512071 33.768107 53.464178 33.768107 87.231147 0 132.25984-75.973973 160.401636-157.58336 168.840533-11.257173 0-19.698347 8.444587-22.509796 19.700622-2.816 11.256036 0 22.512071 5.627449 28.137245 14.067484 14.068622 19.697209 33.770382 19.697209 53.464178v109.746631c0 16.884622 11.256036 28.13952 28.138382 28.13952s28.13952-11.257173 28.13952-28.13952v-106.930631c2.816-19.698347 0-36.581831-8.440035-53.465316 67.536213-14.065209 163.211947-59.089351 163.211946-219.489849z" p-id="8927"></path></svg>