<?xml version="1.0" standalone="no"?><!DOCTYPE svg PUBLIC "-//W3C//DTD SVG 1.1//EN" "http://www.w3.org/Graphics/SVG/1.1/DTD/svg11.dtd"><svg t="1656743006947" class="icon" viewBox="0 0 1024 1024" version="1.1" xmlns="http://www.w3.org/2000/svg" p-id="9204" xmlns:xlink="http://www.w3.org/1999/xlink" width="200" height="200"><defs><style type="text/css">@font-face { font-family: feedback-iconfont; src: url("//at.alicdn.com/t/font_1031158_u69w8yhxdu.woff2?t=1630033759944") format("woff2"), url("//at.alicdn.com/t/font_1031158_u69w8yhxdu.woff?t=1630033759944") format("woff"), url("//at.alicdn.com/t/font_1031158_u69w8yhxdu.ttf?t=1630033759944") format("truetype"); }
</style></defs><path d="M249.942471 558.972018c-22.195769 53.451662-25.837796 104.443449-7.964444 113.93024 12.278898 6.610489 31.596089-8.378596 49.635555-35.82976 7.202133 29.901938 24.825173 56.921884 50.06336 78.697813-26.51136 9.99424-43.788516 26.339556-43.788515 44.813653 0 30.405973 46.840036 54.970596 104.612977 54.970596 52.097707 0 95.294578-19.990756 103.261298-46.248391 4.146062-0.084196 8.298951-0.084196 12.448427 0 7.968996 26.257636 51.2512 46.248391 103.346631 46.248391 57.766116 0 104.614116-24.64768 104.614116-54.970596 0-18.471822-17.280569-34.819413-43.794205-44.817066 25.246151-21.681493 42.945422-48.791324 50.064498-78.6944 18.040604 27.445476 37.270187 42.356053 49.554773 35.833173 17.871076-9.485653 14.31552-60.565049-7.96672-113.933653-17.443271-42.015858-41.170489-72.933831-59.208818-79.799182 0.254862-2.627129 0.420978-5.421511 0.420978-8.045227 0-16.181476-4.398649-31.255893-11.940978-43.455147 0.167253-0.928427 0.167253-1.946738 0.167254-2.879715 0-7.451307-1.778347-14.482773-4.743396-20.501618-4.573867-109.184569-74.118258-195.844551-186.699093-195.844551s-182.206009 86.659982-186.697956 195.847964a47.088071 47.088071 0 0 0-4.742257 20.501618c0 0.926151 0.083058 1.947876 0.083057 2.876302-7.451307 12.201529-11.859058 27.194027-11.859057 43.455147 0 2.710187 0.085333 5.333902 0.33792 8.049778-17.952996 6.861938-41.759858 37.778773-59.205405 79.794631z" p-id="9205"></path></svg>