<?xml version="1.0" standalone="no"?><!DOCTYPE svg PUBLIC "-//W3C//DTD SVG 1.1//EN" "http://www.w3.org/Graphics/SVG/1.1/DTD/svg11.dtd"><svg t="1656742991522" class="icon" viewBox="0 0 1024 1024" version="1.1" xmlns="http://www.w3.org/2000/svg" p-id="9065" xmlns:xlink="http://www.w3.org/1999/xlink" width="200" height="200"><defs><style type="text/css">@font-face { font-family: feedback-iconfont; src: url("//at.alicdn.com/t/font_1031158_u69w8yhxdu.woff2?t=1630033759944") format("woff2"), url("//at.alicdn.com/t/font_1031158_u69w8yhxdu.woff?t=1630033759944") format("woff"), url("//at.alicdn.com/t/font_1031158_u69w8yhxdu.ttf?t=1630033759944") format("truetype"); }
</style></defs><path d="M841.944178 473.63072v0.077369c-3.254044 9.918009-12.191289 16.889173-22.64064 17.719751-10.450489 0.82944-20.371911-4.695609-25.141476-13.934364-3.106133-6.059804-3.712569-13.104924-1.594026-19.615289h-0.07168c14.084551-43.013689 3.937849-90.192782-26.658134-123.818667-30.442382-33.54624-76.712391-48.467058-121.317831-38.999609a26.066489 26.066489 0 0 1-19.540195-3.557831c-5.753742-3.713707-9.84064-9.544818-11.282205-16.206507-2.953671-13.859271 5.982436-27.567218 19.990756-30.519751 60.509298-12.796587 126.168178 5.907342 170.621155 54.828374 44.60544 48.847076 56.56576 115.487858 37.634276 174.026524z m-179.628942-96.250311c-5.759431 1.211733-11.814684 0.152462-16.812943-3.104996-4.99712-3.181227-8.405902-8.178347-9.692729-13.933226-2.574791-11.967147 5.073351-23.702187 17.190685-26.280391 30.516338-6.51264 62.246684 3.634062 83.149938 26.658133 21.736107 23.858062 27.489849 56.343893 18.253369 84.81792-1.820444 5.603556-5.758293 10.224071-11.061476 12.875093-5.298631 2.648747-11.433529 3.180089-17.040498 1.360782-11.733902-3.786524-18.173724-16.282738-14.308693-27.865315h-0.077369a42.249102 42.249102 0 0 0-8.858738-41.501582c-10.375396-11.2128-25.82528-16.205369-40.741546-13.026418z m19.840568 125.63456c38.85056 11.966009 82.090667 40.892871 82.090667 91.786809 0 84.361671-122.53184 190.608498-306.705067 190.608498-140.476871 0-284.137244-67.623822-284.137244-178.797227 0-58.159787 37.107484-125.329636 100.949333-188.796018 85.269618-84.66432 184.779662-123.212231 222.188658-86.028515 16.510293 16.360107 18.099769 44.757902 7.499093 78.606791-5.5296 17.040498 16.129138 7.573049 16.129138 7.651555 68.9152-28.701582 129.117298-30.367289 151.082098 0.830578 11.658809 16.584249 10.601813 39.910969-0.228693 66.945707-4.999396 12.42112 1.514382 14.313244 11.132017 17.191822z m-224.310613 242.562844c112.079076-10.981831 197.122276-79.139271 189.851876-152.296106-7.269262-73.00096-104.04864-123.360142-216.132267-112.381725-112.079076 10.981831-197.123413 79.213227-189.853013 152.2176 7.2704 73.156836 104.050916 123.439787 216.133404 112.460231z m11.205973-208.3328c55.208391 14.160782 83.377493 65.887573 60.810809 116.095431-22.872747 51.418453-88.679538 78.758116-144.489813 60.885903-53.920427-17.263502-76.716942-70.122382-53.088711-117.758863 23.175396-46.652302 83.454862-73.006649 136.767715-59.222471z m-40.739271 121.5488c10.675769-17.343147 5.073351-37.184853-12.498489-44.606577-17.338596-7.194169-39.832462 0.227556-50.511644 16.888035-10.828231 16.737849-5.75488 36.729742 11.50976 44.454116 17.494471 7.949653 40.668729 0.376604 51.500373-16.735574z" p-id="9066"></path></svg>