<svg width="512" height="512" viewBox="0 0 512 512" fill="none" xmlns="http://www.w3.org/2000/svg">
<g clip-path="url(#clip0_337_313)">
<path d="M252.659 504.587C391.555 504.587 504.152 392.087 504.152 253.312C504.152 114.537 391.555 2.03711 252.659 2.03711C113.763 2.03711 1.1651 114.537 1.1651 253.312C1.1651 392.087 113.763 504.587 252.659 504.587Z" fill="#F5F5F5"/>
<path d="M299.856 432.701C266.827 432.71 234.12 426.219 203.601 413.598C173.083 400.977 145.352 382.474 121.991 359.145C98.6304 335.815 80.0977 308.117 67.4513 277.631C54.8048 247.146 48.2922 214.47 48.2855 181.469C48.2495 147.229 55.2478 113.346 68.847 81.918C25.2877 128.392 1.08576 189.701 1.16523 253.372C1.18341 320.002 27.6866 383.897 74.8467 431.006C122.007 478.116 185.963 504.583 252.65 504.587C301.772 504.588 349.82 490.221 390.865 463.258C431.91 436.294 464.156 397.915 483.625 352.855C460.131 378.069 431.687 398.172 400.068 411.91C368.449 425.649 334.335 432.726 299.856 432.701Z" fill="#8BBFF7"/>
<path d="M512 256.796C511.917 290.377 505.214 323.614 492.275 354.607C479.336 385.6 460.414 413.744 436.589 437.43C412.764 461.117 384.502 479.883 353.418 492.658C322.334 505.432 289.037 511.964 255.426 511.88C252.29 511.88 249.155 511.88 246.036 511.692C196.872 509.754 149.309 493.703 109.038 465.459C68.7677 437.215 37.4961 397.975 18.9664 352.435C0.436699 306.895 -4.56614 256.985 4.55665 208.678C13.6794 160.371 36.5414 115.714 70.4062 80.0519C48.5506 115.108 34.4865 154.446 29.1654 195.403C23.8443 236.36 27.3904 277.982 39.5639 317.451C39.6174 317.603 39.6632 317.757 39.701 317.914C44.0645 333.174 50.05 347.924 57.5552 361.911C81.1323 406.085 118.798 441.127 164.576 461.479C210.354 481.831 261.624 486.327 310.25 474.254C358.877 462.18 402.076 434.229 432.994 394.835C463.912 355.44 480.779 306.858 480.918 256.796C481.209 132.849 380.543 31.7914 256.557 31.5004C221.924 31.3707 187.735 39.295 156.696 54.6462L278.489 176.333L306.384 204.204L334.125 231.921V283.503C334.127 283.843 334.028 284.176 333.84 284.459C333.652 284.743 333.383 284.964 333.069 285.094C332.755 285.224 332.409 285.258 332.075 285.191C331.741 285.124 331.435 284.96 331.195 284.718L278.506 232.075L250.611 204.204L57.9151 11.6928C56.9544 10.7341 56.3004 9.51184 56.036 8.18117C55.7717 6.85049 55.9089 5.47135 56.4302 4.21869C56.9515 2.96603 57.8335 1.89631 58.9642 1.14524C60.095 0.394159 61.4235 -0.00442903 62.7813 3.71249e-05L102.088 0.0856358L144.702 0.188354L256.625 0.46227C324.511 0.621003 389.554 27.7162 437.445 75.7877C485.337 123.859 512.155 188.969 512 256.796Z" fill="#1B63F2"/>
<path d="M262.76 247.791L197.374 313.12C197.135 313.36 196.831 313.525 196.499 313.592C196.166 313.66 195.822 313.627 195.508 313.499C195.195 313.371 194.926 313.152 194.737 312.872C194.547 312.591 194.445 312.26 194.444 311.922V260.306L234.864 219.92L262.76 247.791Z" fill="#1B63F2"/>
<path d="M334.125 124.974V176.504L278.438 232.126L250.543 204.255L331.178 123.69C331.421 123.437 331.735 123.265 332.078 123.196C332.422 123.128 332.778 123.166 333.1 123.306C333.421 123.446 333.691 123.681 333.875 123.979C334.058 124.277 334.146 124.624 334.125 124.974Z" fill="#8BBFF7"/>
</g>
<defs>
<clipPath id="clip0_337_313">
<rect width="512" height="512" fill="white"/>
</clipPath>
</defs>
</svg>
