<?xml version="1.0" standalone="no"?><!DOCTYPE svg PUBLIC "-//W3C//DTD SVG 1.1//EN" "http://www.w3.org/Graphics/SVG/1.1/DTD/svg11.dtd"><svg t="1657857697867" class="icon" viewBox="0 0 1024 1024" version="1.1" xmlns="http://www.w3.org/2000/svg" p-id="2943" xmlns:xlink="http://www.w3.org/1999/xlink" width="200" height="200"><defs><style type="text/css">@font-face { font-family: feedback-iconfont; src: url("//at.alicdn.com/t/font_1031158_u69w8yhxdu.woff2?t=1630033759944") format("woff2"), url("//at.alicdn.com/t/font_1031158_u69w8yhxdu.woff?t=1630033759944") format("woff"), url("//at.alicdn.com/t/font_1031158_u69w8yhxdu.ttf?t=1630033759944") format("truetype"); }
</style></defs><path d="M810.666667 362.666667h-64V298.666667c0-129.28-105.386667-234.666667-234.666667-234.666667S277.333333 169.386667 277.333333 298.666667v64H213.333333A106.666667 106.666667 0 0 0 106.666667 469.333333v384A106.666667 106.666667 0 0 0 213.333333 960h597.333334a106.666667 106.666667 0 0 0 106.666666-106.666667v-384A106.666667 106.666667 0 0 0 810.666667 362.666667zM320 298.666667c0-105.813333 86.186667-192 192-192s192 86.186667 192 192v64h-384V298.666667z m554.666667 554.666666c0 35.413333-28.586667 64-64 64H213.333333c-35.413333 0-64-28.586667-64-64v-384c0-35.413333 28.586667-64 64-64h597.333334c35.413333 0 64 28.586667 64 64v384z" fill="#666666" p-id="2944"></path><path d="M512 533.333333c-11.946667 0-21.333333 9.386667-21.333333 21.333334v213.333333c0 11.946667 9.386667 21.333333 21.333333 21.333333s21.333333-9.386667 21.333333-21.333333v-213.333333c0-11.946667-9.386667-21.333333-21.333333-21.333334z" fill="#666666" p-id="2945"></path></svg>