<?xml version="1.0" standalone="no"?><!DOCTYPE svg PUBLIC "-//W3C//DTD SVG 1.1//EN" "http://www.w3.org/Graphics/SVG/1.1/DTD/svg11.dtd"><svg t="1656726578646" class="icon" viewBox="0 0 1024 1024" version="1.1" xmlns="http://www.w3.org/2000/svg" p-id="2559" xmlns:xlink="http://www.w3.org/1999/xlink" width="200" height="200"><defs><style type="text/css">@font-face { font-family: feedback-iconfont; src: url("//at.alicdn.com/t/font_1031158_u69w8yhxdu.woff2?t=1630033759944") format("woff2"), url("//at.alicdn.com/t/font_1031158_u69w8yhxdu.woff?t=1630033759944") format("woff"), url("//at.alicdn.com/t/font_1031158_u69w8yhxdu.ttf?t=1630033759944") format("truetype"); }
</style></defs><path d="M1020.270806 512.942488c0 281.360557-228.087085 509.452736-509.452736 509.452736-281.360557 0-509.452736-228.092179-509.452737-509.452736 0-281.365652 228.092179-509.452736 509.452737-509.452737 281.365652 0 509.452736 228.087085 509.452736 509.452737" fill="#602453" p-id="2560"></path><path d="M497.195303 202.915025l-0.453412-0.188498-243.712 437.859344c1.115701-0.132458 1.864597-0.54002 2.618587-0.952677 8.523144-4.656398 16.969871-9.450348 25.584716-13.938627 20.011303-10.428498 40.430169-19.934886 61.913791-27.006089a44.526169 44.526169 0 0 1 16.679483-2.109135c12.603861 0.743801 24.188816 5.038488 35.391681 10.560956 17.056478 8.40597 31.744 20.006209 45.80999 32.706865 13.408796 12.104597 29.303721 19.985831 47.083622 23.72012 4.707343 0.988338 9.496199 1.574209 14.478647 2.389333-0.320955 0.448318-0.509453 0.815124-0.794746 1.095323-6.892896 6.561751-13.011423 13.719562-17.616876 22.110249-0.305672 0.560398-1.798368 0.962866-2.511602 0.733612-8.568995-2.766328-17.321393-5.12-25.569433-8.650507-11.564577-4.956975-22.655363-10.93795-32.100617-19.522229-10.367363-9.424876-21.514189-17.830846-33.613691-24.922428-8.090109-4.73791-16.353433-9.185433-25.538866-11.462687-4.202985-1.039284-8.51805-2.048-12.833114-0.575681-5.654925 1.925731-11.314945 3.871841-16.878169 6.057393-23.144438 9.088637-45.010149 20.775483-66.600757 33.007442-5.568318 3.158607-11.034746 6.505711-16.806845 9.913951l245.067144 145.94802v-3.820896c0-31.789851-0.005095-63.569512 0.005094-95.349174 0-1.737234-0.005095-3.479562 0.188498-5.196418 1.217592-10.673035 6.245891-19.578269 13.128597-27.515542 12.82802-14.799602 29.125413-24.728836 46.62002-32.966687 25.936239-12.216677 44.587303-31.3721 55.199204-58.15403 0.387184-0.973055 0.840597-1.920637 1.441751-3.275781 0.687761 1.222687 1.085134 1.976677 1.528358 2.7001 3.93807 6.429294 7.850667 12.878965 11.854965 19.267502 1.187025 1.900259 3.637493 3.601831 3.698627 5.451145 0.061134 1.986866-1.981771 4.060338-3.148418 6.072676-13.174448 22.696119-31.642109 39.732219-54.934288 51.709453-7.473672 3.841274-14.911682 7.789532-22.094965 12.135164-7.972935 4.819423-15.30396 10.545672-21.070966 18.009154-2.628776 3.408239-4.671682 7.106866-4.671681 11.600239l0.010189 96.918289v3.260497c81.70603-48.892179 162.933174-97.509254 244.450706-146.279164-0.75399-0.42794-1.110607-0.647005-1.482507-0.835502-32.98197-16.445134-65.948657-32.910647-98.945911-49.315025-7.753871-3.856557-14.264677-9.231284-19.802427-15.79813-16.623443-19.705632-25.452259-43.053851-30.439801-67.879482-2.791801-13.887682-7.473672-26.73608-14.595821-38.932378-8.370308-14.330905-19.746388-25.819065-33.139901-35.14205a101.009194 101.009194 0 0 0-41.622288-16.883264c-3.18408-0.524736-6.398726-0.901731-9.659224-1.355144 0.173214-0.412657 0.193592-0.611343 0.305671-0.723423 6.887801-6.801194 13.047085-14.162786 17.698388-22.721592 0.275104-0.499264 1.467224-0.881353 2.10404-0.748896 3.301254 0.708139 6.602507 1.467224 9.832438 2.445374 21.993075 6.704398 41.148498 18.151801 57.517214 34.316736 15.721711 15.528119 27.388179 33.608597 33.965214 54.715224 1.941015 6.230607 2.251781 12.950289 3.627303 19.374487 3.545791 16.557214 9.200716 32.334965 18.111045 46.828896 5.043582 8.186905 11.391363 14.926965 20.225274 19.308259 28.040279 13.928438 55.963383 28.070846 83.937433 42.126646 1.024 0.509453 2.098945 0.927204 3.729194 1.630249-82.337751-147.802428-164.318886-294.988418-246.305115-442.169313l-0.555303 0.117174v2.995582c0 61.832279 0.005095 123.664557-0.015284 185.491741 0 2.598209-0.035662 5.226985-0.397373 7.794627-1.625154 11.656279-7.657075 21.091343-15.466985 29.48203-12.237055 13.143881-27.118169 22.614607-43.227065 30.297154-4.773572 2.272159-9.694886 4.345632-14.137313 7.157811-16.776279 10.647562-28.982766 25.54396-37.984796 43.008-10.963423 21.259463-13.306905 43.909731-9.440159 67.324179 0.692856 4.223363 1.783085 8.385592 2.705194 12.634428-0.361711-0.050945-0.54002-0.035662-0.697951-0.101891-9.460537-3.591642-18.931264-7.173095-28.361233-10.851343-0.682667-0.27001-1.492697-1.288915-1.523264-1.986866-0.366806-8.996935-1.13608-18.019343-0.759085-27.000995 0.835502-19.878846 7.534806-38.249711 16.771184-55.55582 12.782169-23.944279 31.31606-42.478169 55.296-55.397891 8.090109-4.360915 16.368716-8.385592 24.280518-13.052179 8.645413-5.099622 16.368716-11.432119 22.20195-19.771861 2.837652-4.060338 4.518846-8.385592 4.513751-13.551443-0.096796-61.307542-0.066229-122.615085-0.066229-183.927721v-4.686965m313.578349 462.369114c-0.163025 10.902289-4.758289 19.379582-14.172975 25.01413-44.582209 26.705512-89.189891 53.365174-133.787383 80.035025-45.045811 26.944955-90.112 53.849154-135.127244 80.845054-11.039841 6.617791-21.824955 6.612697-32.885174-0.005094a305082.658388 305082.658388 0 0 0-269.164259-160.956498c-8.670886-5.17604-13.938627-12.328756-14.697712-22.517811-0.438129-5.807761 1.146269-11.116259 3.968637-16.17003 14.147502-25.284139 28.233871-50.598846 42.335523-75.908457L476.761154 181.721791c3.336915-5.98607 6.582129-12.023085 10.020936-17.94802 8.609751-14.845453 26.41003-18.951642 39.98185-8.854288 3.484657 2.593114 6.424199 6.408915 8.57409 10.24 30.251303 53.94595 60.319204 107.983602 90.432955 162.000875a1430557.497313 1430557.497313 0 0 0 180.952517 324.541771c2.37405 4.25393 3.93807 8.670886 4.05015 13.58201" fill="#FFFFFF" p-id="2561"></path></svg>