<?xml version="1.0" standalone="no"?><!DOCTYPE svg PUBLIC "-//W3C//DTD SVG 1.1//EN" "http://www.w3.org/Graphics/SVG/1.1/DTD/svg11.dtd"><svg t="1657857688391" class="icon" viewBox="0 0 1024 1024" version="1.1" xmlns="http://www.w3.org/2000/svg" p-id="2667" xmlns:xlink="http://www.w3.org/1999/xlink" width="200" height="200"><defs><style type="text/css">@font-face { font-family: feedback-iconfont; src: url("//at.alicdn.com/t/font_1031158_u69w8yhxdu.woff2?t=1630033759944") format("woff2"), url("//at.alicdn.com/t/font_1031158_u69w8yhxdu.woff?t=1630033759944") format("woff"), url("//at.alicdn.com/t/font_1031158_u69w8yhxdu.ttf?t=1630033759944") format("truetype"); }
</style></defs><path d="M512 625.777778c-159.288889 0-284.444444-125.155556-284.444444-284.444445s125.155556-284.444444 284.444444-284.444444 284.444444 125.155556 284.444444 284.444444-125.155556 284.444444-284.444444 284.444445z m0-56.888889c125.155556 0 227.555556-102.4 227.555556-227.555556s-102.4-227.555556-227.555556-227.555555-227.555556 102.4-227.555556 227.555555 102.4 227.555556 227.555556 227.555556z" fill="#333333" p-id="2668"></path><path d="M56.888889 1024c0-250.311111 204.8-455.111111 455.111111-455.111111s455.111111 204.8 455.111111 455.111111h-56.888889c0-221.866667-176.355556-398.222222-398.222222-398.222222s-398.222222 176.355556-398.222222 398.222222H56.888889z" fill="#333333" p-id="2669"></path></svg>